<?xml version="1.0" encoding="UTF-8"?>
<svg xmlns="http://www.w3.org/2000/svg" version="1.1" viewBox="0 0 14 14">
  <defs>
    <style>
      .cls-1 {
        fill: #9547a5;
      }
    </style>
  </defs>
  <!-- Generator: Adobe Illustrator 28.7.7, SVG Export Plug-In . SVG Version: 1.2.0 Build 194)  -->
  <g>
    <g id="Layer_1">
      <path class="cls-1" d="M.2,7.9c-.2-.2-.3-.5-.3-.8,0-.3,0-.6.3-.8.2-.3.4-.4.7-.5l1.9-.6c.5-.2.9-.4,1.3-.8.4-.4.6-.8.8-1.3l.6-2c.1-.3.3-.5.6-.7.3-.2.6-.3.9-.3.3,0,.6.1.9.3.2.2.4.4.5.7l.6,1.9c.2.5.4.9.8,1.3.4.4.8.6,1.3.8l2,.6c.3.1.5.3.7.5.2.3.3.5.3.9,0,.3-.1.6-.3.8-.2.2-.4.4-.7.5l-2,.6c-.5.2-.9.4-1.3.8-.4.4-.6.8-.8,1.2l-.6,2c-.1.3-.3.5-.5.7-.3.2-.5.3-.9.3-.3,0-.6-.1-.8-.3-.2-.2-.4-.4-.5-.7l-.6-1.9c-.2-.5-.4-.9-.8-1.3-.4-.4-.8-.6-1.3-.8l-2-.6c-.3-.1-.5-.3-.7-.5Z"/>
    </g>
  </g>
</svg>